<?xml version="1.0" encoding="UTF-8"?>
<svg version="1.1" xmlns="http://www.w3.org/2000/svg" width="128" height="128">
<path d="M0 0 C42.24 0 84.48 0 128 0 C128 42.24 128 84.48 128 128 C85.76 128 43.52 128 0 128 C0 85.76 0 43.52 0 0 Z " fill="#FDA441" transform="translate(0,0)"/>
<path d="M0 0 C42.24 0 84.48 0 128 0 C128 42.24 128 84.48 128 128 C85.76 128 43.52 128 0 128 C0 85.76 0 43.52 0 0 Z M9 9 C9 45.63 9 82.26 9 120 C45.63 120 82.26 120 120 120 C120 83.37 120 46.74 120 9 C83.37 9 46.74 9 9 9 Z " fill="#E75C11" transform="translate(0,0)"/>
<path d="M0 0 C13.2 0 26.4 0 40 0 C40 2.64 40 5.28 40 8 C42.64 8 45.28 8 48 8 C48 10.31 48 12.62 48 15 C50.64 15 53.28 15 56 15 C56 25.56 56 36.12 56 47 C50.72 47 45.44 47 40 47 C40 52.61 40 58.22 40 64 C37.36 64 34.72 64 32 64 C32 66.31 32 68.62 32 71 C34.64 71 37.28 71 40 71 C40 76.28 40 81.56 40 87 C34.72 87 29.44 87 24 87 C24 84.36 24 81.72 24 79 C21.69 79 19.38 79 17 79 C17 74.05 17 69.1 17 64 C19.31 64 21.62 64 24 64 C24 61.03 24 58.06 24 55 C21.69 55 19.38 55 17 55 C17 49.72 17 44.44 17 39 C11.39 39 5.78 39 0 39 C0 36.36 0 33.72 0 31 C-2.31 31 -4.62 31 -7 31 C-7 23.41 -7 15.82 -7 8 C-4.69 8 -2.38 8 0 8 C0 5.36 0 2.72 0 0 Z " fill="#E35910" transform="translate(40,25)"/>
<path d="M0 0 C2.31 0 4.62 0 7 0 C7 42.24 7 84.48 7 128 C-35.24 128 -77.48 128 -121 128 C-121 125.36 -121 122.72 -121 120 C-81.4 120 -41.8 120 -1 120 C-1.03956301 83.50096916 -1.03956301 83.50096916 -1.09008789 47.00195312 C-1.09460449 39.92871094 -1.09460449 39.92871094 -1.09544373 36.61315918 C-1.09697521 34.30684211 -1.10048378 32.00052582 -1.10557556 29.69421387 C-1.11291709 26.19261289 -1.11390524 22.69106067 -1.11352539 19.18945312 C-1.1171235 18.1689814 -1.12072161 17.14850967 -1.12442875 16.09711456 C-1.11652158 10.63566658 -0.80688042 5.40314883 0 0 Z " fill="#080502" transform="translate(121,0)"/>
<path d="M0 0 C2.64 0 5.28 0 8 0 C8 10.56 8 21.12 8 32 C2.72 32 -2.56 32 -8 32 C-8 37.61 -8 43.22 -8 49 C-10.64 49 -13.28 49 -16 49 C-16 51.31 -16 53.62 -16 56 C-13.36 56 -10.72 56 -8 56 C-8 61.28 -8 66.56 -8 72 C-13.28 72 -18.56 72 -24 72 C-24 69.36 -24 66.72 -24 64 C-26.31 64 -28.62 64 -31 64 C-31 59.05 -31 54.1 -31 49 C-28.69 49 -26.38 49 -24 49 C-24 46.03 -24 43.06 -24 40 C-21.36 40 -18.72 40 -16 40 C-16 34.72 -16 29.44 -16 24 C-10.72 24 -5.44 24 0 24 C0 16.08 0 8.16 0 0 Z " fill="#080300" transform="translate(88,40)"/>
<path d="M0 0 C2.97 0 5.94 0 9 0 C9 36.63 9 73.26 9 111 C6.03 111 3.06 111 0 111 C0 74.37 0 37.74 0 0 Z " fill="#E75C11" transform="translate(0,9)"/>
<path d="M0 0 C1.04897461 0.00483398 1.04897461 0.00483398 2.11914062 0.00976562 C2.82361328 0.01814453 3.52808594 0.02652344 4.25390625 0.03515625 C5.3512207 0.04192383 5.3512207 0.04192383 6.47070312 0.04882812 C8.25264044 0.06047477 10.03453488 0.07840434 11.81640625 0.09765625 C11.81640625 0.42765625 11.81640625 0.75765625 11.81640625 1.09765625 C9.17640625 1.09765625 6.53640625 1.09765625 3.81640625 1.09765625 C3.81640625 3.40765625 3.81640625 5.71765625 3.81640625 8.09765625 C6.45640625 8.09765625 9.09640625 8.09765625 11.81640625 8.09765625 C11.81640625 13.37765625 11.81640625 18.65765625 11.81640625 24.09765625 C6.53640625 24.09765625 1.25640625 24.09765625 -4.18359375 24.09765625 C-4.18359375 21.45765625 -4.18359375 18.81765625 -4.18359375 16.09765625 C-6.49359375 16.09765625 -8.80359375 16.09765625 -11.18359375 16.09765625 C-11.18359375 11.14765625 -11.18359375 6.19765625 -11.18359375 1.09765625 C-3.30859375 -0.02734375 -3.30859375 -0.02734375 0 0 Z " fill="#E05810" transform="translate(68.18359375,87.90234375)"/>
<path d="M0 0 C7.59 0 15.18 0 23 0 C23 2.31 23 4.62 23 7 C18.05 7 13.1 7 8 7 C8 14.92 8 22.84 8 31 C2.39 31 -3.22 31 -9 31 C-9 28.69 -9 26.38 -9 24 C-6.03 24 -3.06 24 0 24 C0 16.08 0 8.16 0 0 Z " fill="#070502" transform="translate(49,33)"/>
<path d="M0 0 C4.95 0 9.9 0 15 0 C15 5.28 15 10.56 15 16 C12.36 16 9.72 16 7 16 C7 18.64 7 21.28 7 24 C4.69 24 2.38 24 0 24 C0 16.08 0 8.16 0 0 Z " fill="#FDA441" transform="translate(57,40)"/>
<path d="M0 0 C2.64 0 5.28 0 8 0 C8 5.28 8 10.56 8 16 C2.72 16 -2.56 16 -8 16 C-8 13.36 -8 10.72 -8 8 C-5.36 8 -2.72 8 0 8 C0 5.36 0 2.72 0 0 Z " fill="#0A0501" transform="translate(72,96)"/>
<path d="M0 0 C2.97 0 5.94 0 9 0 C9 2.97 9 5.94 9 9 C6.03 9 3.06 9 0 9 C0 6.03 0 3.06 0 0 Z " fill="#1D1307" transform="translate(16,16)"/>
<path d="M0 0 C2.97 0 5.94 0 9 0 C9 2.64 9 5.28 9 8 C6.03 8 3.06 8 0 8 C0 5.36 0 2.72 0 0 Z " fill="#0E0903" transform="translate(16,104)"/>
<path d="M0 0 C2.64 0 5.28 0 8 0 C8 2.97 8 5.94 8 9 C5.36 9 2.72 9 0 9 C0 6.03 0 3.06 0 0 Z " fill="#0F0903" transform="translate(104,16)"/>
<path d="M0 0 C2.64 0 5.28 0 8 0 C8 2.64 8 5.28 8 8 C5.36 8 2.72 8 0 8 C0 5.36 0 2.72 0 0 Z " fill="#000000" transform="translate(104,104)"/>
<path d="M0 0 C2.64 0 5.28 0 8 0 C8 2.64 8 5.28 8 8 C5.36 8 2.72 8 0 8 C0 5.36 0 2.72 0 0 Z " fill="#000000" transform="translate(0,0)"/>
</svg>
